#N canvas 0 23 1440 799 10;
#X floatatom 408 161 5 0 0 0 - - -;
#X obj 18 103 bng 15 250 50 0 empty empty empty 17 7 0 10 -262144 -1
-1;
#X obj 508 264 *~;
#X obj 797 105 line 0 1;
#X obj 516 638 freeverb~;
#X obj 408 140 mtof;
#X msg 492 508 freeze 1;
#X msg 416 508 freeze 0;
#X obj 1133 270 loadbang;
#X obj 87 441 +;
#X obj 798 355 + 800;
#X obj 798 334 random 1600;
#X obj 247 390 hradio 15 1 0 5 empty empty empty 0 -8 0 10 -228856
-262130 -1 1;
#X obj 207 340 f;
#X obj 237 340 + 1;
#N canvas 0 22 682 522 (subpatch) 0;
#X array myMelo 5 float 3;
#A 0 73 79 48 84 72;
#X coords 0 84 5 48 100 140 1 0 0;
#X restore 1132 -48 graph;
#X obj 87 501 tabwrite myMelo;
#X obj 1297 123 loadbang;
#X obj 416 488 spigot;
#X obj 492 488 spigot;
#X obj 525 468 == 1;
#X obj 455 468 == 0;
#X obj 455 418 f;
#X obj 485 418 + 1;
#X obj 455 438 % 2;
#X obj 207 390 == 0;
#X obj 174 411 spigot;
#X obj 408 88 tabread myMelo;
#X msg 1297 153 dry 0.5;
#X msg 1307 173 wet 0.5;
#X obj 120 461 ==;
#X obj 87 481 spigot;
#X floatatom 174 481 5 0 0 0 - - -;
#X msg 1357 153 width 1;
#X obj 408 211 osc~;
#X obj 458 211 osc~;
#X obj 508 211 osc~;
#X obj 508 160 * 7.5;
#X obj 458 160 * 3.33;
#X obj 32 657 looper;
#X obj 65 597 bng 15 250 50 0 empty empty empty 17 7 0 10 -262144 -1
-1;
#X obj 102 657 looper;
#X floatatom 24 595 5 0 0 0 - - -;
#X msg 1317 193 roomsize 0.6;
#X obj 965 75 line 0 1;
#X obj 965 125 tabwrite myMelo;
#X msg 965 35 0 0;
#X msg 975 55 8 8;
#X msg 965 105 60;
#X obj 1272 -4 tgl 15 0 empty empty empty 17 7 0 10 -262144 -1 -1 0
1;
#X obj 1272 26 metro 5;
#X obj 207 360 % 5;
#X obj 174 441 random 5;
#X obj 542 -35 f;
#X obj 572 -35 + 1;
#X msg 509 88 0;
#X obj 408 114 -;
#X obj 509 67 spigot;
#X obj 609 67 spigot;
#X obj 559 67 spigot;
#X obj 797 85 pack f f;
#X obj 542 6 hradio 15 1 0 6 empty empty empty 0 -8 0 10 -228856 -204800
-1 4;
#X obj 842 55 pow 3;
#X obj 842 15 random 10;
#X obj 842 35 + 3;
#X obj 542 -15 % 6;
#X obj 542 36 < 3;
#X obj 592 36 == 3;
#X obj 642 36 > 3;
#X obj 408 191 +~;
#X obj 458 190 +~;
#X obj 508 191 +~;
#X obj 588 140 osc~ 0.2;
#X obj 588 160 *~ 3;
#X obj 18 -84 tgl 15 0 empty empty empty 17 7 0 10 -262144 -1 -1 0
1;
#X obj 51 -15 f;
#X obj 81 -15 + 1;
#X obj 118 4 == 0;
#X msg 18 83 0;
#X obj 18 33 spigot;
#X obj 18 63 spigot;
#X obj 18 -64 metro 5;
#X obj 51 13 > 600;
#X obj 118 -16 random 500;
#X obj 544 673 dac~ 1 2 3 4;
#X obj 590 638 freeverb~;
#X obj 172 657 looper;
#X obj 242 657 looper;
#X obj 416 539 s reverbcommands;
#X obj 416 608 r reverbcommands;
#X obj 1297 224 s reverbcommands;
#X msg 1367 173 freeze 0;
#X obj 516 588 r~ loop1;
#X obj 32 677 s~ loop1;
#X obj 102 677 s~ loop2;
#X obj 172 677 s~ loop3;
#X obj 242 677 s~ loop4;
#X obj 567 608 r~ loop2;
#X obj 590 588 r~ loop3;
#X obj 641 608 r~ loop4;
#X obj 508 284 s~ chime;
#X obj 798 394 s~ del1;
#X obj 32 567 r~ del1;
#X obj 102 567 r~ del2;
#X obj 172 567 r~ del3;
#X obj 242 567 r~ del4;
#X obj 908 374 delwrite~ dl1 2400;
#X obj 798 445 + 800;
#X obj 798 424 random 1600;
#X obj 798 484 s~ del2;
#X obj 908 464 delwrite~ dl2 2400;
#X obj 798 535 + 800;
#X obj 798 514 random 1600;
#X obj 798 625 + 800;
#X obj 798 604 random 1600;
#X obj 908 624 *~ 0.65;
#X obj 798 574 s~ del3;
#X obj 798 664 s~ del4;
#X obj 908 554 delwrite~ dl3 2400;
#X obj 908 644 delwrite~ dl4 2400;
#X obj 747 314 t b b b b;
#X obj 416 388 t b b b;
#X obj 33 186 s freezeB;
#X obj 18 166 s delaysB;
#X obj 747 294 r delaysB;
#X obj 416 368 r freezeB;
#X obj 797 125 s env;
#X obj 815 -75 r envB;
#X obj 578 230 r env;
#X obj 254 441 s cycleB;
#X obj 482 -75 r cycleB;
#X obj 1272 46 s seqB;
#X obj 140 320 r seqB;
#X obj 120 441 r sPos;
#X obj 247 410 s sPos;
#X obj 408 66 r sPos;
#X obj 140 340 t b b b b;
#X obj 198 103 bng 15 250 50 0 empty empty empty 17 7 0 10 -262144
-1 -1;
#X obj 48 83 s reset1;
#X obj 66 -54 r reset1;
#X obj 18 -44 t b b b;
#X obj 198 -84 tgl 15 0 empty empty empty 17 7 0 10 -262144 -1 -1 0
1;
#X obj 231 -15 f;
#X obj 261 -15 + 1;
#X obj 298 4 == 0;
#X msg 198 83 0;
#X obj 198 33 spigot;
#X obj 198 63 spigot;
#X obj 198 -64 metro 5;
#X obj 198 -44 t b b b;
#X obj 246 -54 r reset2;
#X obj 228 83 s reset2;
#X obj 231 13 > 800;
#X obj 298 -16 random 1000;
#X obj 1 166 bng 15 500 50 0 empty empty empty 17 7 0 10 -261234 -262144
-1;
#X obj 16 186 bng 15 500 50 0 empty empty empty 17 7 0 10 -261682 -262144
-1;
#X obj 32 206 bng 15 500 50 0 empty empty empty 17 7 0 10 -262130 -262144
-1;
#X obj 48 226 bng 15 500 50 0 empty empty empty 17 7 0 10 -204786 -262144
-1;
#X obj 123 320 bng 15 500 50 0 empty empty empty 17 7 0 10 -262130
-262144 -1;
#X obj 798 -75 bng 15 500 50 0 empty empty empty 17 7 0 10 -204786
-262144 -1;
#X obj 237 441 bng 15 500 50 0 empty empty empty 17 7 0 10 -204800
-262144 -1;
#X obj 465 -75 bng 15 500 50 0 empty empty empty 17 7 0 10 -204800
-262144 -1;
#X obj 482 36 t b b b;
#X obj 482 -55 t b b;
#X obj 399 368 bng 15 500 50 0 empty empty empty 17 7 0 10 -261682
-262144 -1;
#X obj 730 294 bng 15 500 50 0 empty empty empty 17 7 0 10 -261234
-262144 -1;
#X obj 1255 46 bng 15 500 50 0 empty empty empty 17 7 0 10 -262130
-262144 -1;
#X obj 49 206 s seqB;
#X obj 65 226 s envB;
#X obj 230 410 bng 15 500 50 0 empty empty empty 17 7 0 10 -203904
-262144 -1;
#X obj 391 66 bng 15 500 50 0 empty empty empty 17 7 0 10 -203904 -262144
-1;
#X obj 780 125 bng 15 500 50 0 empty empty empty 17 7 0 10 -232576
-262144 -1;
#X obj 561 230 bng 15 500 50 0 empty empty empty 17 7 0 10 -232576
-262144 -1;
#X obj 1132 606 r~ chime;
#X obj 18 136 t b b b b b;
#X obj 64 246 bng 15 500 50 0 empty empty empty 17 7 0 10 -159737 -262144
-1;
#X obj 81 246 s sSelB;
#X obj 1184 496 bng 15 500 50 0 empty empty empty 17 7 0 10 -159737
-262144 -1;
#X obj 1201 496 r sSelB;
#X obj 1201 566 hradio 15 1 0 4 empty empty empty 0 -8 0 10 -228856
-159737 -1 3;
#X obj 1162 636 spigot~;
#X obj 1212 636 spigot~;
#X obj 1262 636 spigot~;
#X obj 1312 636 spigot~;
#X obj 1162 666 s~ c1;
#X obj 908 334 r~ c1;
#X obj 1212 666 s~ c2;
#X obj 1262 666 s~ c3;
#X obj 1312 666 s~ c4;
#X obj 908 424 r~ c2;
#X obj 908 514 r~ c3;
#X obj 908 604 r~ c4;
#X obj 1201 596 != 0;
#X obj 1251 596 != 1;
#X obj 1301 596 != 2;
#X obj 1351 596 != 3;
#X obj 908 534 *~ 0.7;
#X obj 908 354 *~ 0.63;
#X obj 908 444 *~ 0.66;
#X obj 408 230 *~ 0.6;
#X obj 458 230 *~ 0.15;
#X obj 508 230 *~ 0.5;
#X obj 798 374 delread~ dl2 2400;
#X obj 798 464 delread~ dl3 2400;
#X obj 798 554 delread~ dl4 2400;
#X obj 798 644 delread~ dl1 2400;
#X text 815 289 The non-matched delay lines shuffle;
#X text 815 299 the sound around between speakers;
#X obj 2 627 r~ c1;
#X obj 72 627 r~ c2;
#X obj 142 627 r~ c3;
#X obj 212 627 r~ c4;
#X obj 1201 526 random 4;
#X msg 747 75 0.3 \$1;
#X obj 777 -15 random 15;
#X obj 777 5 + 1;
#X obj 797 55 del;
#X obj 777 25 pow 2;
#X obj 815 -45 t b b;
#X msg 1233 330 \; myScale2 0 2 4 7 9;
#X msg 1133 296 \; myScale1 0 3 5 7 10;
#X obj 1133 330 table myScale1;
#X obj 1233 364 table myScale2;
#X obj 1103 390 table myScale3;
#X msg 1103 356 \; myScale3 0 2 3 7 8;
#X msg 569 88 5;
#X msg 609 88 8;
#X obj 559 117 s SScycleB;
#X obj 965 -75 r SScycleB;
#X obj 965 -55 f;
#X obj 995 -55 + 1;
#X obj 965 -35 % 10;
#X obj 541 117 bng 15 500 50 0 empty empty empty 17 7 0 10 -112896
-262144 -1;
#X obj 948 -75 bng 15 500 50 0 empty empty empty 17 7 0 10 -112896
-262144 -1;
#X obj 965 -15 == 0;
#X obj 965 5 spigot;
#X floatatom 995 -15 5 0 0 0 - - -;
#X obj 1233 430 table myScale4;
#X msg 1233 396 \; myScale4 0 7 12 1 7 12 3 7 12;
#X obj -8 370 random 9;
#X obj 22 410 bng 15 250 50 0 empty empty empty 17 7 0 10 -258113 -262144
-262144;
#X obj 132 390 bng 15 250 50 0 empty empty empty 17 7 0 10 -258113
-262144 -262144;
#X obj 1216 430 bng 15 250 50 0 empty empty empty 17 7 0 10 -258113
-262144 -262144;
#X obj -8 410 + 48;
#X obj -8 390 tabread myScale4;
#X obj 102 390 * 24;
#X obj 102 370 random 2;
#X connect 0 0 69 0;
#X connect 1 0 174 0;
#X connect 2 0 100 0;
#X connect 3 0 126 0;
#X connect 3 0 171 0;
#X connect 4 0 84 0;
#X connect 4 1 84 1;
#X connect 5 0 0 0;
#X connect 5 0 37 0;
#X connect 5 0 38 0;
#X connect 6 0 88 0;
#X connect 7 0 88 0;
#X connect 8 0 220 0;
#X connect 8 0 219 0;
#X connect 8 0 224 0;
#X connect 8 0 238 0;
#X connect 9 0 31 0;
#X connect 10 0 202 0;
#X connect 11 0 10 0;
#X connect 12 0 134 0;
#X connect 12 0 169 0;
#X connect 13 0 14 0;
#X connect 13 0 51 0;
#X connect 14 0 13 1;
#X connect 17 0 28 0;
#X connect 17 0 29 0;
#X connect 17 0 43 0;
#X connect 17 0 33 0;
#X connect 17 0 91 0;
#X connect 18 0 7 0;
#X connect 19 0 6 0;
#X connect 20 0 19 1;
#X connect 21 0 18 1;
#X connect 22 0 23 0;
#X connect 22 0 24 0;
#X connect 23 0 22 1;
#X connect 24 0 20 0;
#X connect 24 0 21 0;
#X connect 25 0 26 1;
#X connect 26 0 52 0;
#X connect 26 0 129 0;
#X connect 26 0 160 0;
#X connect 27 0 56 0;
#X connect 28 0 90 0;
#X connect 29 0 90 0;
#X connect 30 0 31 1;
#X connect 31 0 16 0;
#X connect 32 0 16 1;
#X connect 33 0 90 0;
#X connect 34 0 199 0;
#X connect 35 0 200 0;
#X connect 36 0 201 0;
#X connect 37 0 71 0;
#X connect 38 0 70 0;
#X connect 39 0 93 0;
#X connect 40 0 39 2;
#X connect 40 0 41 2;
#X connect 40 0 86 2;
#X connect 40 0 87 2;
#X connect 41 0 94 0;
#X connect 42 0 39 1;
#X connect 42 0 41 1;
#X connect 42 0 86 1;
#X connect 42 0 87 1;
#X connect 43 0 90 0;
#X connect 44 0 48 0;
#X connect 44 0 45 1;
#X connect 46 0 44 0;
#X connect 46 0 47 0;
#X connect 47 0 44 0;
#X connect 48 0 45 0;
#X connect 49 0 50 0;
#X connect 50 0 131 0;
#X connect 50 0 166 0;
#X connect 51 0 25 0;
#X connect 51 0 12 0;
#X connect 52 0 30 1;
#X connect 52 0 32 0;
#X connect 53 0 54 0;
#X connect 53 0 65 0;
#X connect 54 0 53 1;
#X connect 55 0 56 1;
#X connect 56 0 5 0;
#X connect 57 0 55 0;
#X connect 58 0 226 0;
#X connect 59 0 225 0;
#X connect 59 0 227 0;
#X connect 59 0 232 0;
#X connect 60 0 3 0;
#X connect 61 0 66 0;
#X connect 61 0 67 0;
#X connect 61 0 68 0;
#X connect 62 0 60 1;
#X connect 63 0 64 0;
#X connect 64 0 62 0;
#X connect 65 0 61 0;
#X connect 66 0 57 1;
#X connect 67 0 59 1;
#X connect 68 0 58 1;
#X connect 69 0 34 0;
#X connect 70 0 35 0;
#X connect 71 0 36 0;
#X connect 72 0 73 0;
#X connect 73 0 71 1;
#X connect 73 0 70 1;
#X connect 73 0 69 1;
#X connect 74 0 81 0;
#X connect 75 0 76 0;
#X connect 75 0 82 0;
#X connect 76 0 75 1;
#X connect 77 0 80 1;
#X connect 78 0 1 0;
#X connect 78 0 138 0;
#X connect 79 0 80 0;
#X connect 80 0 78 0;
#X connect 81 0 140 0;
#X connect 82 0 79 1;
#X connect 83 0 77 0;
#X connect 85 0 84 2;
#X connect 85 1 84 3;
#X connect 86 0 95 0;
#X connect 87 0 96 0;
#X connect 89 0 4 0;
#X connect 89 0 85 0;
#X connect 91 0 90 0;
#X connect 92 0 4 0;
#X connect 97 0 4 1;
#X connect 98 0 85 0;
#X connect 99 0 85 1;
#X connect 102 0 39 0;
#X connect 103 0 41 0;
#X connect 104 0 86 0;
#X connect 105 0 87 0;
#X connect 107 0 203 0;
#X connect 108 0 107 0;
#X connect 111 0 204 0;
#X connect 112 0 111 0;
#X connect 113 0 205 0;
#X connect 114 0 113 0;
#X connect 115 0 119 0;
#X connect 120 0 114 0;
#X connect 120 1 112 0;
#X connect 120 2 108 0;
#X connect 120 3 11 0;
#X connect 121 0 18 0;
#X connect 121 1 19 0;
#X connect 121 2 22 0;
#X connect 124 0 120 0;
#X connect 124 0 165 0;
#X connect 125 0 121 0;
#X connect 125 0 164 0;
#X connect 127 0 159 0;
#X connect 127 0 218 0;
#X connect 128 0 2 1;
#X connect 128 0 172 0;
#X connect 130 0 161 0;
#X connect 130 0 163 0;
#X connect 132 0 136 0;
#X connect 132 0 158 0;
#X connect 133 0 30 0;
#X connect 135 0 27 0;
#X connect 135 0 170 0;
#X connect 136 0 239 0;
#X connect 136 1 246 0;
#X connect 136 2 26 0;
#X connect 136 3 13 0;
#X connect 137 0 174 0;
#X connect 139 0 75 1;
#X connect 140 0 79 0;
#X connect 140 1 75 0;
#X connect 140 2 83 0;
#X connect 141 0 148 0;
#X connect 142 0 143 0;
#X connect 142 0 152 0;
#X connect 143 0 142 1;
#X connect 144 0 147 1;
#X connect 145 0 151 0;
#X connect 145 0 137 0;
#X connect 146 0 147 0;
#X connect 147 0 145 0;
#X connect 148 0 149 0;
#X connect 149 0 146 0;
#X connect 149 1 142 0;
#X connect 149 2 153 0;
#X connect 150 0 142 1;
#X connect 152 0 146 1;
#X connect 153 0 144 0;
#X connect 162 0 57 0;
#X connect 162 1 59 0;
#X connect 162 2 58 0;
#X connect 163 0 162 0;
#X connect 163 1 53 0;
#X connect 173 0 180 0;
#X connect 173 0 181 0;
#X connect 173 0 182 0;
#X connect 173 0 183 0;
#X connect 174 0 123 0;
#X connect 174 0 154 0;
#X connect 174 1 122 0;
#X connect 174 1 155 0;
#X connect 174 2 156 0;
#X connect 174 2 167 0;
#X connect 174 3 157 0;
#X connect 174 3 168 0;
#X connect 174 4 175 0;
#X connect 174 4 176 0;
#X connect 178 0 177 0;
#X connect 178 0 212 0;
#X connect 179 0 192 0;
#X connect 179 0 193 0;
#X connect 179 0 194 0;
#X connect 179 0 195 0;
#X connect 180 0 184 0;
#X connect 181 0 186 0;
#X connect 182 0 187 0;
#X connect 183 0 188 0;
#X connect 185 0 197 0;
#X connect 189 0 198 0;
#X connect 190 0 196 0;
#X connect 191 0 115 0;
#X connect 192 0 180 1;
#X connect 193 0 181 1;
#X connect 194 0 182 1;
#X connect 195 0 183 1;
#X connect 196 0 118 0;
#X connect 197 0 106 0;
#X connect 198 0 110 0;
#X connect 199 0 2 0;
#X connect 200 0 2 0;
#X connect 201 0 2 0;
#X connect 202 0 101 0;
#X connect 202 0 197 0;
#X connect 203 0 109 0;
#X connect 203 0 198 0;
#X connect 204 0 116 0;
#X connect 204 0 196 0;
#X connect 205 0 115 0;
#X connect 205 0 117 0;
#X connect 208 0 39 0;
#X connect 209 0 41 0;
#X connect 210 0 86 0;
#X connect 211 0 87 0;
#X connect 212 0 179 0;
#X connect 213 0 3 0;
#X connect 214 0 215 0;
#X connect 215 0 217 0;
#X connect 216 0 60 0;
#X connect 217 0 216 0;
#X connect 217 0 213 0;
#X connect 218 0 214 0;
#X connect 218 1 63 0;
#X connect 225 0 56 1;
#X connect 226 0 56 1;
#X connect 228 0 229 0;
#X connect 228 0 233 0;
#X connect 229 0 230 0;
#X connect 229 0 231 0;
#X connect 230 0 229 1;
#X connect 231 0 234 0;
#X connect 231 0 236 0;
#X connect 234 0 235 1;
#X connect 234 0 235 0;
#X connect 235 0 46 0;
#X connect 239 0 244 0;
#X connect 243 0 9 0;
#X connect 244 0 243 0;
#X connect 245 0 9 1;
#X connect 246 0 245 0;
