#N canvas 0 22 589 746 10;
#X obj 139 178 spigot~;
#X obj 178 148 tgl 15 0 empty empty empty 17 7 0 10 -262144 -1 -1 1
1;
#X obj 199 178 spigot~;
#X obj 238 148 tgl 15 0 empty empty empty 17 7 0 10 -262144 -1 -1 0
1;
#X obj 178 109 bng 15 250 50 0 empty empty empty 17 7 0 10 -262144
-1 -1;
#X obj 89 178 spigot~;
#X obj 139 288 spigot~;
#X obj 178 56 inlet;
#X obj 238 106 loadbang;
#X obj 89 56 inlet~;
#X obj 89 336 outlet~;
#X obj 139 226 delwrite~ \$0-del 2000;
#X obj 139 256 delread~ \$0-del 2000;
#X obj 139 56 inlet;
#X connect 0 0 11 0;
#X connect 1 0 0 1;
#X connect 1 0 5 1;
#X connect 2 0 11 0;
#X connect 3 0 2 1;
#X connect 3 0 6 1;
#X connect 4 0 1 0;
#X connect 4 0 3 0;
#X connect 5 0 10 0;
#X connect 6 0 10 0;
#X connect 7 0 4 0;
#X connect 8 0 3 0;
#X connect 9 0 0 0;
#X connect 9 0 5 0;
#X connect 12 0 2 0;
#X connect 12 0 6 0;
#X connect 13 0 12 0;
